<svg width="218" height="218" viewBox="0 0 218 218" fill="none" xmlns="http://www.w3.org/2000/svg">
<g filter="url(#filter0_d_192_13)">
<circle cx="109.011" cy="99.4491" r="98.4774" fill="white"/>
</g>
<g filter="url(#filter1_d_192_13)">
<circle cx="109.011" cy="99.4489" r="65.1793" fill="#C029DF"/>
</g>
<path d="M86.4581 125.76C84.4643 125.76 82.5521 124.968 81.1423 123.559C79.7325 122.149 78.9404 120.237 78.9404 118.243V103.208L75.1816 99.4489L78.9404 95.69V80.6548C78.9404 78.661 79.7325 76.7489 81.1423 75.3391C82.5521 73.9292 84.4643 73.1372 86.4581 73.1372M131.564 125.76C133.558 125.76 135.47 124.968 136.879 123.559C138.289 122.149 139.081 120.237 139.081 118.243V103.208L142.84 99.4489L139.081 95.69V80.6548C139.081 78.661 138.289 76.7489 136.879 75.3391C135.47 73.9292 133.558 73.1372 131.564 73.1372" stroke="white" stroke-width="7.51761" stroke-linecap="round" stroke-linejoin="round"/>
<path d="M92.3895 94.8688C92.3895 102.952 99.0713 107.258 103.961 111.114C105.687 112.474 107.349 113.756 109.011 113.756C110.673 113.756 112.335 112.476 114.06 111.113C118.952 107.26 125.632 102.952 125.632 94.8704C125.632 86.7875 116.49 81.0548 109.011 88.8269C101.531 81.0531 92.3895 86.7858 92.3895 94.8688Z" fill="white"/>
<defs>
<filter id="filter0_d_192_13" x="0.533569" y="0.97168" width="216.955" height="216.955" filterUnits="userSpaceOnUse" color-interpolation-filters="sRGB">
<feFlood flood-opacity="0" result="BackgroundImageFix"/>
<feColorMatrix in="SourceAlpha" type="matrix" values="0 0 0 0 0 0 0 0 0 0 0 0 0 0 0 0 0 0 127 0" result="hardAlpha"/>
<feMorphology radius="5" operator="erode" in="SourceAlpha" result="effect1_dropShadow_192_13"/>
<feOffset dy="10"/>
<feGaussianBlur stdDeviation="7.5"/>
<feComposite in2="hardAlpha" operator="out"/>
<feColorMatrix type="matrix" values="0 0 0 0 0 0 0 0 0 0 0 0 0 0 0 0 0 0 0.25 0"/>
<feBlend mode="normal" in2="BackgroundImageFix" result="effect1_dropShadow_192_13"/>
<feBlend mode="normal" in="SourceGraphic" in2="effect1_dropShadow_192_13" result="shape"/>
</filter>
<filter id="filter1_d_192_13" x="38.8317" y="33.2695" width="140.359" height="140.358" filterUnits="userSpaceOnUse" color-interpolation-filters="sRGB">
<feFlood flood-opacity="0" result="BackgroundImageFix"/>
<feColorMatrix in="SourceAlpha" type="matrix" values="0 0 0 0 0 0 0 0 0 0 0 0 0 0 0 0 0 0 127 0" result="hardAlpha"/>
<feOffset dy="4"/>
<feGaussianBlur stdDeviation="2.5"/>
<feComposite in2="hardAlpha" operator="out"/>
<feColorMatrix type="matrix" values="0 0 0 0 0 0 0 0 0 0 0 0 0 0 0 0 0 0 0.15 0"/>
<feBlend mode="normal" in2="BackgroundImageFix" result="effect1_dropShadow_192_13"/>
<feBlend mode="normal" in="SourceGraphic" in2="effect1_dropShadow_192_13" result="shape"/>
</filter>
</defs>
</svg>
