<svg width="898" height="633" viewBox="0 0 898 633" fill="none" xmlns="http://www.w3.org/2000/svg">
<g clip-path="url(#clip0_196_404)">
<rect width="898" height="632" transform="translate(0 0.269531)" fill="white"/>
<g opacity="0.1">
<path d="M-64.6691 642.282C-67.3527 644.966 -70.9924 646.473 -74.7876 646.473C-78.5828 646.473 -82.2225 644.966 -84.9061 642.282L-105.143 622.045H-115.261V611.927L-135.498 591.69C-138.182 589.006 -139.69 585.366 -139.69 581.571C-139.69 577.776 -138.182 574.136 -135.498 571.453M-3.95831 581.571C-1.27472 578.888 0.232897 575.248 0.232897 571.453C0.232897 567.658 -1.27472 564.018 -3.95831 561.334L-24.1953 541.097V530.979H-34.3137L-54.5507 510.742C-57.2343 508.058 -60.874 506.551 -64.6691 506.551C-68.4643 506.551 -72.104 508.058 -74.7876 510.742" stroke="#C029DF" stroke-width="14.3097" stroke-linecap="round" stroke-linejoin="round"/>
<path d="M76.9894 783.941C74.3058 786.624 70.6661 788.132 66.871 788.132C63.0758 788.132 59.4361 786.624 56.7525 783.941L36.5155 763.704H26.3971V753.585L6.16013 733.348C3.47654 730.665 1.96892 727.025 1.96892 723.23C1.96892 719.435 3.47654 715.795 6.16013 713.111M137.7 723.23C140.384 720.546 141.891 716.907 141.891 713.111C141.891 709.316 140.384 705.676 137.7 702.993L117.463 682.756V672.637H107.345L87.1079 652.401C84.4243 649.717 80.7846 648.209 76.9894 648.209C73.1943 648.209 69.5545 649.717 66.871 652.401" stroke="#C029DF" stroke-width="14.3097" stroke-linecap="round" stroke-linejoin="round"/>
<path d="M5.70598 713.565C3.0224 716.249 -0.617327 717.756 -4.41249 717.756C-8.20765 717.756 -11.8474 716.249 -14.531 713.565L-34.7679 693.328H-44.8864V683.21L-65.1233 662.973C-67.8069 660.289 -69.3145 656.65 -69.3145 652.854C-69.3145 649.059 -67.8069 645.419 -65.1233 642.736M66.4168 652.854C69.1004 650.171 70.608 646.531 70.608 642.736C70.608 638.941 69.1004 635.301 66.4168 632.617L46.1799 612.38V602.262H36.0614L15.8245 582.025C13.1409 579.341 9.50115 577.834 5.70598 577.834C1.91082 577.834 -1.7289 579.341 -4.41249 582.025" stroke="#C029DF" stroke-width="14.3097" stroke-linecap="round" stroke-linejoin="round"/>
<path d="M-27.8899 664.002C-17.0105 674.882 -2.22049 671.685 9.55155 670.293C13.7038 669.801 17.6658 669.289 19.903 667.052C22.1402 664.815 22.6547 660.855 23.1424 656.698C24.5407 644.928 27.7331 630.138 16.8559 619.261C5.97654 608.382 -14.044 612.97 -13.6502 633.499C-34.1808 633.103 -38.7693 653.123 -27.8899 664.002Z" fill="#C029DF"/>
<path d="M317.549 -23.2512C314.865 -20.5677 311.225 -19.06 307.43 -19.06C303.635 -19.06 299.995 -20.5677 297.312 -23.2512L277.075 -43.4882H266.956V-53.6067L246.719 -73.8436C244.036 -76.5272 242.528 -80.1669 242.528 -83.9621C242.528 -87.7572 244.036 -91.397 246.719 -94.0805M378.26 -83.9621C380.943 -86.6457 382.451 -90.2854 382.451 -94.0805C382.451 -97.8757 380.943 -101.515 378.26 -104.199L358.023 -124.436V-134.554H347.904L327.667 -154.791C324.984 -157.475 321.344 -158.983 317.549 -158.983C313.754 -158.983 310.114 -157.475 307.43 -154.791" stroke="#C029DF" stroke-width="14.3097" stroke-linecap="round" stroke-linejoin="round"/>
<path d="M459.207 118.407C456.523 121.091 452.883 122.598 449.088 122.598C445.293 122.598 441.653 121.091 438.97 118.407L418.733 98.17H408.614V88.0516L388.377 67.8146C385.694 65.131 384.186 61.4913 384.186 57.6961C384.186 53.901 385.694 50.2612 388.377 47.5777M519.918 57.6961C522.601 55.0125 524.109 51.3728 524.109 47.5777C524.109 43.7825 522.601 40.1428 519.918 37.4592L499.681 17.2222V7.10378H489.562L469.325 -13.1332C466.642 -15.8168 463.002 -17.3244 459.207 -17.3244C455.412 -17.3244 451.772 -15.8168 449.088 -13.1332" stroke="#C029DF" stroke-width="14.3097" stroke-linecap="round" stroke-linejoin="round"/>
<path d="M425.611 68.8438C436.49 79.7232 451.28 76.5262 463.052 75.1347C467.204 74.6425 471.167 74.1302 473.404 71.893C475.641 69.6559 476.155 65.6961 476.643 61.5394C478.041 49.7696 481.234 34.9796 470.357 24.1024C459.477 13.223 439.457 17.8115 439.851 38.3398C419.32 37.9439 414.731 57.9644 425.611 68.8438Z" fill="#C029DF"/>
<path d="M600.865 260.064C598.182 262.748 594.542 264.255 590.747 264.255C586.952 264.255 583.312 262.748 580.628 260.064L560.391 239.827H550.273V229.709L530.036 209.472C527.352 206.788 525.845 203.149 525.845 199.353C525.845 195.558 527.352 191.918 530.036 189.235M661.576 199.353C664.26 196.67 665.767 193.03 665.767 189.235C665.767 185.44 664.26 181.8 661.576 179.116L641.339 158.879V148.761H631.221L610.984 128.524C608.3 125.84 604.66 124.333 600.865 124.333C597.07 124.333 593.43 125.84 590.747 128.524" stroke="#C029DF" stroke-width="14.3097" stroke-linecap="round" stroke-linejoin="round"/>
<path d="M567.27 210.501C578.149 221.38 592.939 218.183 604.711 216.792C608.863 216.3 612.825 215.787 615.062 213.55C617.3 211.313 617.814 207.353 618.302 203.197C619.7 191.427 622.893 176.637 612.015 165.76C601.136 154.88 581.115 159.469 581.509 179.997C560.979 179.601 556.39 199.622 567.27 210.501Z" fill="#C029DF"/>
<path d="M742.523 401.722C739.84 404.406 736.2 405.914 732.405 405.914C728.61 405.914 724.97 404.406 722.286 401.722L702.049 381.485H691.931V371.367L671.694 351.13C669.01 348.446 667.503 344.807 667.503 341.012C667.503 337.216 669.01 333.577 671.694 330.893M803.234 341.012C805.918 338.328 807.425 334.688 807.425 330.893C807.425 327.098 805.918 323.458 803.234 320.775L782.997 300.538V290.419H772.879L752.642 270.182C749.958 267.499 746.319 265.991 742.523 265.991C738.728 265.991 735.088 267.499 732.405 270.182" stroke="#C029DF" stroke-width="14.3097" stroke-linecap="round" stroke-linejoin="round"/>
<path d="M708.928 352.159C719.807 363.039 734.597 359.842 746.369 358.45C750.521 357.958 754.483 357.446 756.72 355.208C758.958 352.971 759.472 349.011 759.96 344.855C761.358 333.085 764.55 318.295 753.673 307.418C742.794 296.538 722.773 301.127 723.167 321.655C702.637 321.259 698.048 341.28 708.928 352.159Z" fill="#C029DF"/>
<path d="M884.181 543.381C881.498 546.064 877.858 547.572 874.063 547.572C870.268 547.572 866.628 546.064 863.944 543.381L843.707 523.144H833.589V513.025L813.352 492.788C810.668 490.105 809.161 486.465 809.161 482.67C809.161 478.875 810.668 475.235 813.352 472.551M944.892 482.67C947.576 479.986 949.083 476.346 949.083 472.551C949.083 468.756 947.576 465.116 944.892 462.433L924.655 442.196V432.077H914.537L894.3 411.84C891.616 409.157 887.976 407.649 884.181 407.649C880.386 407.649 876.746 409.157 874.063 411.84" stroke="#C029DF" stroke-width="14.3097" stroke-linecap="round" stroke-linejoin="round"/>
<path d="M850.585 493.818C861.465 504.697 876.255 501.5 888.027 500.109C892.179 499.617 896.141 499.104 898.378 496.867C900.615 494.63 901.13 490.67 901.618 486.513C903.016 474.744 906.208 459.954 895.331 449.077C884.452 438.197 864.431 442.786 864.825 463.314C844.295 462.918 839.706 482.938 850.585 493.818Z" fill="#C029DF"/>
<path d="M387.924 48.0315C385.24 50.7151 381.601 52.2227 377.806 52.2227C374.01 52.2227 370.371 50.7151 367.687 48.0315L347.45 27.7945H337.332V17.6761L317.095 -2.56088C314.411 -5.24447 312.903 -8.88419 312.903 -12.6794C312.903 -16.4745 314.411 -20.1142 317.095 -22.7978M448.635 -12.6794C451.318 -15.3629 452.826 -19.0027 452.826 -22.7978C452.826 -26.593 451.318 -30.2327 448.635 -32.9163L428.398 -53.1532V-63.2717H418.279L398.042 -83.5087C395.359 -86.1922 391.719 -87.6999 387.924 -87.6999C384.129 -87.6999 380.489 -86.1922 377.806 -83.5087" stroke="#C029DF" stroke-width="14.3097" stroke-linecap="round" stroke-linejoin="round"/>
<path d="M354.328 -1.53123C365.208 9.34817 379.998 6.15124 391.77 4.75971C395.922 4.26753 399.884 3.75522 402.121 1.51804C404.358 -0.71914 404.873 -4.67895 405.36 -8.83563C406.759 -20.6054 409.951 -35.3954 399.074 -46.2726C388.195 -57.152 368.174 -52.5635 368.568 -32.0352C348.037 -32.4311 343.449 -12.4106 354.328 -1.53123Z" fill="#C029DF"/>
<path d="M529.582 189.689C526.898 192.373 523.258 193.88 519.463 193.88C515.668 193.88 512.028 192.373 509.345 189.689L489.108 169.452H478.989V159.334L458.752 139.097C456.069 136.413 454.561 132.774 454.561 128.978C454.561 125.183 456.069 121.543 458.752 118.86M590.293 128.978C592.976 126.295 594.484 122.655 594.484 118.86C594.484 115.065 592.976 111.425 590.293 108.741L570.056 88.5045V78.386H559.937L539.7 58.1491C537.017 55.4655 533.377 53.9579 529.582 53.9579C525.787 53.9579 522.147 55.4655 519.463 58.1491" stroke="#C029DF" stroke-width="14.3097" stroke-linecap="round" stroke-linejoin="round"/>
<path d="M495.986 140.126C506.866 151.005 521.655 147.808 533.428 146.417C537.58 145.925 541.542 145.412 543.779 143.175C546.016 140.938 546.531 136.978 547.018 132.822C548.417 121.052 551.609 106.262 540.732 95.3846C529.853 84.5052 509.832 89.0937 510.226 109.622C489.695 109.226 485.107 129.247 495.986 140.126Z" fill="#C029DF"/>
<path d="M671.24 331.347C668.557 334.031 664.917 335.539 661.122 335.539C657.327 335.539 653.687 334.031 651.003 331.347L630.766 311.11H620.648V300.992L600.411 280.755C597.727 278.071 596.22 274.432 596.22 270.637C596.22 266.841 597.727 263.202 600.411 260.518M731.951 270.637C734.635 267.953 736.142 264.313 736.142 260.518C736.142 256.723 734.635 253.083 731.951 250.4L711.714 230.163V220.044H701.596L681.359 199.807C678.675 197.124 675.035 195.616 671.24 195.616C667.445 195.616 663.805 197.124 661.122 199.807" stroke="#C029DF" stroke-width="14.3097" stroke-linecap="round" stroke-linejoin="round"/>
<path d="M637.644 281.784C648.524 292.664 663.314 289.467 675.086 288.075C679.238 287.583 683.2 287.071 685.437 284.833C687.674 282.596 688.189 278.636 688.677 274.48C690.075 262.71 693.267 247.92 682.39 237.043C671.511 226.163 651.49 230.752 651.884 251.28C631.353 250.884 626.765 270.905 637.644 281.784Z" fill="#C029DF"/>
<path d="M812.899 473.006C810.215 475.689 806.575 477.197 802.78 477.197C798.985 477.197 795.345 475.689 792.662 473.006L772.425 452.769H762.306V442.65L742.069 422.413C739.386 419.73 737.878 416.09 737.878 412.295C737.878 408.5 739.386 404.86 742.069 402.176M873.609 412.295C876.293 409.611 877.801 405.971 877.801 402.176C877.801 398.381 876.293 394.741 873.609 392.058L853.372 371.821V361.702H843.254L823.017 341.465C820.333 338.782 816.694 337.274 812.899 337.274C809.103 337.274 805.464 338.782 802.78 341.465" stroke="#C029DF" stroke-width="14.3097" stroke-linecap="round" stroke-linejoin="round"/>
<path d="M779.303 423.442C790.182 434.322 804.972 431.125 816.744 429.733C820.896 429.241 824.858 428.729 827.096 426.492C829.333 424.254 829.847 420.295 830.335 416.138C831.733 404.368 834.926 389.578 824.049 378.701C813.169 367.822 793.149 372.41 793.542 392.938C773.012 392.542 768.423 412.563 779.303 423.442Z" fill="#C029DF"/>
<path d="M954.556 614.663C951.872 617.346 948.233 618.854 944.437 618.854C940.642 618.854 937.002 617.346 934.319 614.663L914.082 594.426H903.963V584.307L883.727 564.07C881.043 561.387 879.535 557.747 879.535 553.952C879.535 550.157 881.043 546.517 883.727 543.834M1015.27 553.952C1017.95 551.268 1019.46 547.629 1019.46 543.834C1019.46 540.038 1017.95 536.399 1015.27 533.715L995.03 513.478V503.36H984.911L964.674 483.123C961.991 480.439 958.351 478.931 954.556 478.931C950.761 478.931 947.121 480.439 944.437 483.123" stroke="#C029DF" stroke-width="14.3097" stroke-linecap="round" stroke-linejoin="round"/>
<path d="M212.773 81.5242C210.09 84.2077 206.45 85.7154 202.655 85.7154C198.86 85.7154 195.22 84.2077 192.536 81.5242L172.299 61.2872H162.181V51.1687L141.944 30.9318C139.26 28.2482 137.753 24.6085 137.753 20.8133C137.753 17.0182 139.26 13.3784 141.944 10.6949M273.484 20.8133C276.168 18.1297 277.675 14.49 277.675 10.6949C277.675 6.89969 276.168 3.25996 273.484 0.576379L253.247 -19.6606V-29.779H243.129L222.892 -50.016C220.208 -52.6996 216.569 -54.2072 212.773 -54.2072C208.978 -54.2072 205.338 -52.6996 202.655 -50.016" stroke="#C029DF" stroke-width="14.3097" stroke-linecap="round" stroke-linejoin="round"/>
<path d="M179.178 31.961C190.057 42.8404 204.847 39.6434 216.619 38.2519C220.771 37.7597 224.733 37.2474 226.97 35.0102C229.208 32.773 229.722 28.8132 230.21 24.6566C231.608 12.8868 234.8 -1.90323 223.923 -12.7804C213.044 -23.6598 193.023 -19.0713 193.417 1.45702C172.887 1.06104 168.298 21.0816 179.178 31.961Z" fill="#C029DF"/>
<path d="M354.431 223.182C351.748 225.866 348.108 227.374 344.313 227.374C340.518 227.374 336.878 225.866 334.194 223.182L313.957 202.945H303.839V192.827L283.602 172.59C280.918 169.906 279.411 166.267 279.411 162.472C279.411 158.676 280.918 155.037 283.602 152.353M415.142 162.472C417.826 159.788 419.333 156.148 419.333 152.353C419.333 148.558 417.826 144.918 415.142 142.235L394.905 121.998V111.879H384.787L364.55 91.6422C361.866 88.9586 358.226 87.451 354.431 87.451C350.636 87.451 346.996 88.9586 344.313 91.6422" stroke="#C029DF" stroke-width="14.3097" stroke-linecap="round" stroke-linejoin="round"/>
<path d="M320.835 173.619C331.715 184.499 346.505 181.302 358.277 179.91C362.429 179.418 366.391 178.906 368.628 176.668C370.865 174.431 371.38 170.471 371.868 166.315C373.266 154.545 376.458 139.755 365.581 128.878C354.702 117.998 334.681 122.587 335.075 143.115C314.545 142.719 309.956 162.74 320.835 173.619Z" fill="#C029DF"/>
<path d="M496.09 364.84C493.407 367.523 489.767 369.031 485.972 369.031C482.177 369.031 478.537 367.523 475.853 364.84L455.616 344.603H445.498V334.484L425.261 314.247C422.577 311.564 421.07 307.924 421.07 304.129C421.07 300.334 422.577 296.694 425.261 294.01M556.801 304.129C559.485 301.445 560.992 297.805 560.992 294.01C560.992 290.215 559.485 286.575 556.801 283.892L536.564 263.655V253.536H526.446L506.209 233.299C503.525 230.616 499.885 229.108 496.09 229.108C492.295 229.108 488.655 230.616 485.972 233.299" stroke="#C029DF" stroke-width="14.3097" stroke-linecap="round" stroke-linejoin="round"/>
<path d="M462.494 315.276C473.374 326.156 488.164 322.959 499.936 321.567C504.088 321.075 508.05 320.563 510.287 318.326C512.524 316.088 513.039 312.129 513.527 307.972C514.925 296.202 518.117 281.412 507.24 270.535C496.361 259.656 476.34 264.244 476.734 284.772C456.203 284.376 451.615 304.397 462.494 315.276Z" fill="#C029DF"/>
<path d="M637.748 506.498C635.064 509.181 631.425 510.689 627.63 510.689C623.834 510.689 620.195 509.181 617.511 506.498L597.274 486.261H587.156V476.142L566.919 455.905C564.235 453.222 562.727 449.582 562.727 445.787C562.727 441.992 564.235 438.352 566.919 435.668M698.459 445.787C701.142 443.103 702.65 439.464 702.65 435.668C702.65 431.873 701.142 428.234 698.459 425.55L678.222 405.313V395.195H668.103L647.866 374.958C645.183 372.274 641.543 370.766 637.748 370.766C633.953 370.766 630.313 372.274 627.63 374.958" stroke="#C029DF" stroke-width="14.3097" stroke-linecap="round" stroke-linejoin="round"/>
<path d="M604.152 456.935C615.032 467.814 629.822 464.617 641.594 463.226C645.746 462.733 649.708 462.221 651.945 459.984C654.182 457.747 654.697 453.787 655.184 449.63C656.583 437.86 659.775 423.07 648.898 412.193C638.019 401.314 617.998 405.902 618.392 426.431C597.861 426.035 593.273 446.055 604.152 456.935Z" fill="#C029DF"/>
<path d="M779.406 648.156C776.722 650.839 773.083 652.347 769.287 652.347C765.492 652.347 761.853 650.839 759.169 648.156L738.932 627.919H728.814V617.8L708.577 597.563C705.893 594.88 704.385 591.24 704.385 587.445C704.385 583.65 705.893 580.01 708.577 577.326M840.117 587.445C842.8 584.761 844.308 581.121 844.308 577.326C844.308 573.531 842.8 569.891 840.117 567.208L819.88 546.971V536.852H809.761L789.524 516.615C786.841 513.932 783.201 512.424 779.406 512.424C775.611 512.424 771.971 513.932 769.287 516.615" stroke="#C029DF" stroke-width="14.3097" stroke-linecap="round" stroke-linejoin="round"/>
<path d="M745.81 598.592C756.689 609.472 771.479 606.275 783.251 604.883C787.404 604.391 791.366 603.879 793.603 601.642C795.84 599.404 796.355 595.445 796.842 591.288C798.241 579.518 801.433 564.728 790.556 553.851C779.676 542.972 759.656 547.56 760.05 568.088C739.519 567.692 734.931 587.713 745.81 598.592Z" fill="#C029DF"/>
<path d="M141.491 11.1487C138.807 13.8323 135.167 15.3399 131.372 15.3399C127.577 15.3399 123.937 13.8323 121.254 11.1487L101.017 -9.08828H90.8983V-19.2068L70.6614 -39.4437C67.9778 -42.1273 66.4701 -45.767 66.4701 -49.5622C66.4701 -53.3573 67.9778 -56.9971 70.6614 -59.6806M202.201 -49.5622C204.885 -52.2458 206.393 -55.8855 206.393 -59.6806C206.393 -63.4758 204.885 -67.1155 202.201 -69.7991L181.965 -90.0361V-100.155H171.846L151.609 -120.391C148.926 -123.075 145.286 -124.583 141.491 -124.583C137.695 -124.583 134.056 -123.075 131.372 -120.391" stroke="#C029DF" stroke-width="14.3097" stroke-linecap="round" stroke-linejoin="round"/>
<path d="M283.149 152.806C280.465 155.49 276.825 156.998 273.03 156.998C269.235 156.998 265.595 155.49 262.912 152.806L242.675 132.569H232.556V122.451L212.319 102.214C209.636 99.5304 208.128 95.8907 208.128 92.0955C208.128 88.3004 209.636 84.6607 212.319 81.9771M343.859 92.0955C346.543 89.412 348.051 85.7722 348.051 81.9771C348.051 78.1819 346.543 74.5422 343.859 71.8586L323.622 51.6217V41.5032H313.504L293.267 21.2662C290.583 18.5827 286.944 17.075 283.149 17.075C279.353 17.075 275.714 18.5827 273.03 21.2662" stroke="#C029DF" stroke-width="14.3097" stroke-linecap="round" stroke-linejoin="round"/>
<path d="M249.553 103.243C260.432 114.123 275.222 110.926 286.994 109.534C291.146 109.042 295.108 108.53 297.346 106.292C299.583 104.055 300.097 100.095 300.585 95.9388C301.983 84.169 305.176 69.379 294.299 58.5018C283.419 47.6224 263.399 52.2109 263.792 72.7392C243.262 72.3433 238.673 92.3638 249.553 103.243Z" fill="#C029DF"/>
<path d="M424.807 294.465C422.123 297.148 418.484 298.656 414.688 298.656C410.893 298.656 407.253 297.148 404.57 294.465L384.333 274.228H374.214V264.109L353.978 243.872C351.294 241.189 349.786 237.549 349.786 233.754C349.786 229.959 351.294 226.319 353.978 223.635M485.518 233.754C488.201 231.07 489.709 227.43 489.709 223.635C489.709 219.84 488.201 216.2 485.518 213.517L465.281 193.28V183.161H455.162L434.925 162.924C432.242 160.241 428.602 158.733 424.807 158.733C421.012 158.733 417.372 160.241 414.688 162.924" stroke="#C029DF" stroke-width="14.3097" stroke-linecap="round" stroke-linejoin="round"/>
<path d="M391.211 244.901C402.09 255.781 416.88 252.584 428.652 251.192C432.805 250.7 436.767 250.188 439.004 247.951C441.241 245.713 441.756 241.754 442.243 237.597C443.641 225.827 446.834 211.037 435.957 200.16C425.077 189.281 405.057 193.869 405.451 214.397C384.92 214.001 380.332 234.022 391.211 244.901Z" fill="#C029DF"/>
<path d="M566.465 436.123C563.782 438.806 560.142 440.314 556.347 440.314C552.552 440.314 548.912 438.806 546.228 436.123L525.991 415.886H515.873V405.767L495.636 385.53C492.952 382.847 491.445 379.207 491.445 375.412C491.445 371.617 492.952 367.977 495.636 365.293M627.176 375.412C629.86 372.728 631.367 369.089 631.367 365.293C631.367 361.498 629.86 357.859 627.176 355.175L606.939 334.938V324.82H596.821L576.584 304.583C573.9 301.899 570.26 300.391 566.465 300.391C562.67 300.391 559.03 301.899 556.347 304.583" stroke="#C029DF" stroke-width="14.3097" stroke-linecap="round" stroke-linejoin="round"/>
<path d="M532.869 386.56C543.749 397.439 558.539 394.242 570.311 392.851C574.463 392.358 578.425 391.846 580.662 389.609C582.899 387.372 583.414 383.412 583.902 379.255C585.3 367.485 588.492 352.695 577.615 341.818C566.736 330.939 546.715 335.527 547.109 356.056C526.578 355.66 521.99 375.68 532.869 386.56Z" fill="#C029DF"/>
<path d="M708.123 577.78C705.44 580.464 701.8 581.971 698.005 581.971C694.21 581.971 690.57 580.464 687.886 577.78L667.649 557.543H657.531V547.425L637.294 527.188C634.61 524.504 633.103 520.864 633.103 517.069C633.103 513.274 634.61 509.634 637.294 506.951M768.834 517.069C771.518 514.386 773.025 510.746 773.025 506.951C773.025 503.156 771.518 499.516 768.834 496.832L748.597 476.595V466.477H738.479L718.242 446.24C715.558 443.556 711.918 442.049 708.123 442.049C704.328 442.049 700.688 443.556 698.005 446.24" stroke="#C029DF" stroke-width="14.3097" stroke-linecap="round" stroke-linejoin="round"/>
<path d="M674.527 528.217C685.407 539.097 700.197 535.9 711.969 534.508C716.121 534.016 720.083 533.504 722.32 531.267C724.557 529.029 725.072 525.07 725.56 520.913C726.958 509.143 730.15 494.353 719.273 483.476C708.394 472.597 688.373 477.185 688.767 497.713C668.236 497.317 663.648 517.338 674.527 528.217Z" fill="#C029DF"/>
<path d="M849.78 719.438C847.097 722.122 843.457 723.629 839.662 723.629C835.867 723.629 832.227 722.122 829.544 719.438L809.307 699.201H799.188V689.083L778.951 668.846C776.268 666.162 774.76 662.523 774.76 658.727C774.76 654.932 776.268 651.292 778.951 648.609M910.491 658.727C913.175 656.044 914.682 652.404 914.682 648.609C914.682 644.814 913.175 641.174 910.491 638.49L890.254 618.253V608.135H880.136L859.899 587.898C857.215 585.214 853.576 583.707 849.78 583.707C845.985 583.707 842.346 585.214 839.662 587.898" stroke="#C029DF" stroke-width="14.3097" stroke-linecap="round" stroke-linejoin="round"/>
<path d="M816.185 669.876C827.064 680.755 841.854 677.558 853.626 676.166C857.778 675.674 861.74 675.162 863.977 672.925C866.215 670.688 866.729 666.728 867.217 662.571C868.615 650.801 871.808 636.011 860.93 625.134C850.051 614.255 830.03 618.843 830.424 639.372C809.894 638.976 805.305 658.996 816.185 669.876Z" fill="#C029DF"/>
<path d="M40.1064 537.507C37.4228 540.19 33.7831 541.698 29.9879 541.698C26.1927 541.698 22.553 540.19 19.8694 537.507L-0.367512 517.27H-10.486V507.151L-30.7229 486.914C-33.4065 484.231 -34.9141 480.591 -34.9141 476.796C-34.9141 473.001 -33.4065 469.361 -30.7229 466.677M100.817 476.796C103.501 474.112 105.008 470.472 105.008 466.677C105.008 462.882 103.501 459.242 100.817 456.559L80.5803 436.322V426.203H70.4618L50.2248 405.966C47.5413 403.283 43.9015 401.775 40.1064 401.775C36.3112 401.775 32.6715 403.283 29.9879 405.966" stroke="#C029DF" stroke-width="14.3097" stroke-linecap="round" stroke-linejoin="round"/>
<path d="M6.51051 487.944C17.3899 498.823 32.1799 495.626 43.9519 494.235C48.1041 493.743 52.0662 493.23 54.3034 490.993C56.5405 488.756 57.0551 484.796 57.5428 480.639C58.941 468.87 62.1335 454.08 51.2563 443.203C40.3769 432.323 20.3564 436.912 20.7502 457.44C0.219569 457.044 -4.36889 477.064 6.51051 487.944Z" fill="#C029DF"/>
<path d="M181.765 679.165C179.081 681.849 175.442 683.356 171.646 683.356C167.851 683.356 164.211 681.849 161.528 679.165L141.291 658.928H131.172V648.81L110.936 628.573C108.252 625.889 106.744 622.25 106.744 618.454C106.744 614.659 108.252 611.02 110.936 608.336M242.476 618.454C245.159 615.771 246.667 612.131 246.667 608.336C246.667 604.541 245.159 600.901 242.476 598.217L222.239 577.981V567.862H212.12L191.883 547.625C189.2 544.942 185.56 543.434 181.765 543.434C177.97 543.434 174.33 544.942 171.646 547.625" stroke="#C029DF" stroke-width="14.3097" stroke-linecap="round" stroke-linejoin="round"/>
<path d="M148.169 629.603C159.048 640.482 173.838 637.285 185.61 635.893C189.763 635.401 193.725 634.889 195.962 632.652C198.199 630.415 198.714 626.455 199.201 622.298C200.599 610.528 203.792 595.738 192.915 584.861C182.035 573.982 162.015 578.57 162.409 599.099C141.878 598.703 137.29 618.723 148.169 629.603Z" fill="#C029DF"/>
<path d="M-31.1763 467.132C-33.8599 469.815 -37.4997 471.323 -41.2948 471.323C-45.09 471.323 -48.7297 469.815 -51.4133 467.132L-71.6502 446.895H-81.7687V436.776L-102.006 416.539C-104.689 413.856 -106.197 410.216 -106.197 406.421C-106.197 402.626 -104.689 398.986 -102.006 396.302M29.5345 406.421C32.2181 403.737 33.7257 400.097 33.7257 396.302C33.7257 392.507 32.2181 388.867 29.5345 386.184L9.29755 365.947V355.828H-0.820924L-21.0579 335.591C-23.7415 332.908 -27.3812 331.4 -31.1763 331.4C-34.9715 331.4 -38.6112 332.908 -41.2948 335.591" stroke="#C029DF" stroke-width="14.3097" stroke-linecap="round" stroke-linejoin="round"/>
<path d="M-64.7722 417.568C-53.8928 428.448 -39.1028 425.251 -27.3308 423.859C-23.1786 423.367 -19.2165 422.855 -16.9793 420.618C-14.7422 418.38 -14.2276 414.421 -13.7399 410.264C-12.3417 398.494 -9.14922 383.704 -20.0264 372.827C-30.9058 361.948 -50.9263 366.536 -50.5326 387.064C-71.0631 386.668 -75.6516 406.689 -64.7722 417.568Z" fill="#C029DF"/>
<path d="M110.481 608.79C107.798 611.473 104.158 612.981 100.363 612.981C96.5677 612.981 92.928 611.473 90.2444 608.79L70.0075 588.553H59.889V578.434L39.6521 558.197C36.9685 555.514 35.4609 551.874 35.4609 548.079C35.4609 544.284 36.9685 540.644 39.6521 537.96M171.192 548.079C173.876 545.395 175.383 541.756 175.383 537.96C175.383 534.165 173.876 530.526 171.192 527.842L150.955 507.605V497.487H140.837L120.6 477.25C117.916 474.566 114.277 473.058 110.481 473.058C106.686 473.058 103.046 474.566 100.363 477.25" stroke="#C029DF" stroke-width="14.3097" stroke-linecap="round" stroke-linejoin="round"/>
<path d="M76.8855 559.227C87.7649 570.106 102.555 566.909 114.327 565.518C118.479 565.025 122.441 564.513 124.678 562.276C126.916 560.039 127.43 556.079 127.918 551.922C129.316 540.152 132.508 525.362 121.631 514.485C110.752 503.606 90.7314 508.194 91.1252 528.723C70.5946 528.327 66.0061 548.347 76.8855 559.227Z" fill="#C029DF"/>
<path d="M252.14 750.448C249.456 753.132 245.817 754.64 242.021 754.64C238.226 754.64 234.586 753.132 231.903 750.448L211.666 730.212H201.547V720.093L181.311 699.856C178.627 697.173 177.119 693.533 177.119 689.738C177.119 685.942 178.627 682.303 181.311 679.619M312.851 689.738C315.534 687.054 317.042 683.414 317.042 679.619C317.042 675.824 315.534 672.184 312.851 669.501L292.614 649.264V639.145H282.495L262.258 618.908C259.575 616.225 255.935 614.717 252.14 614.717C248.345 614.717 244.705 616.225 242.021 618.908" stroke="#C029DF" stroke-width="14.3097" stroke-linecap="round" stroke-linejoin="round"/>
<path d="M563.982 13.6316C561.299 16.3152 557.659 17.8228 553.864 17.8228C550.068 17.8228 546.429 16.3152 543.745 13.6316L523.508 -6.60537H513.39V-16.7238L493.153 -36.9608C490.469 -39.6444 488.962 -43.2841 488.962 -47.0793C488.962 -50.8744 490.469 -54.5141 493.153 -57.1977M624.693 -47.0793C627.377 -49.7628 628.884 -53.4026 628.884 -57.1977C628.884 -60.9929 627.377 -64.6326 624.693 -67.3162L604.456 -87.5531V-97.6716H594.338L574.101 -117.909C571.417 -120.592 567.777 -122.1 563.982 -122.1C560.187 -122.1 556.547 -120.592 553.864 -117.909" stroke="#C029DF" stroke-width="14.3097" stroke-linecap="round" stroke-linejoin="round"/>
<path d="M705.641 155.29C702.957 157.973 699.317 159.481 695.522 159.481C691.727 159.481 688.087 157.973 685.404 155.29L665.167 135.053H655.048V124.934L634.811 104.697C632.128 102.014 630.62 98.3741 630.62 94.5789C630.62 90.7838 632.128 87.1441 634.811 84.4605M766.351 94.5789C769.035 91.8954 770.543 88.2556 770.543 84.4605C770.543 80.6653 769.035 77.0256 766.351 74.342L746.114 54.1051V43.9866H735.996L715.759 23.7496C713.075 21.0661 709.436 19.5584 705.641 19.5584C701.845 19.5584 698.206 21.0661 695.522 23.7496" stroke="#C029DF" stroke-width="14.3097" stroke-linecap="round" stroke-linejoin="round"/>
<path d="M672.045 105.727C682.924 116.606 697.714 113.409 709.486 112.018C713.639 111.525 717.601 111.013 719.838 108.776C722.075 106.539 722.59 102.579 723.077 98.4222C724.475 86.6524 727.668 71.8624 716.791 60.9852C705.911 50.1058 685.891 54.6943 686.285 75.2226C665.754 74.8267 661.166 94.8472 672.045 105.727Z" fill="#C029DF"/>
<path d="M847.298 296.947C844.615 299.631 840.975 301.138 837.18 301.138C833.385 301.138 829.745 299.631 827.061 296.947L806.824 276.71H796.706V266.592L776.469 246.355C773.785 243.671 772.278 240.031 772.278 236.236C772.278 232.441 773.785 228.801 776.469 226.118M908.009 236.236C910.693 233.553 912.2 229.913 912.2 226.118C912.2 222.323 910.693 218.683 908.009 215.999L887.772 195.762V185.644H877.654L857.417 165.407C854.733 162.723 851.093 161.216 847.298 161.216C843.503 161.216 839.863 162.723 837.18 165.407" stroke="#C029DF" stroke-width="14.3097" stroke-linecap="round" stroke-linejoin="round"/>
<path d="M813.702 247.384C824.582 258.263 839.372 255.066 851.144 253.675C855.296 253.183 859.258 252.67 861.495 250.433C863.732 248.196 864.247 244.236 864.735 240.079C866.133 228.31 869.325 213.52 858.448 202.642C847.569 191.763 827.548 196.352 827.942 216.88C807.411 216.484 802.823 236.504 813.702 247.384Z" fill="#C029DF"/>
<path d="M988.956 438.606C986.273 441.289 982.633 442.797 978.838 442.797C975.043 442.797 971.403 441.289 968.719 438.606L948.482 418.369H938.364V408.25L918.127 388.013C915.443 385.33 913.936 381.69 913.936 377.895C913.936 374.1 915.443 370.46 918.127 367.776M1049.67 377.895C1052.35 375.211 1053.86 371.572 1053.86 367.776C1053.86 363.981 1052.35 360.342 1049.67 357.658L1029.43 337.421V327.303H1019.31L999.075 307.066C996.391 304.382 992.751 302.874 988.956 302.874C985.161 302.874 981.521 304.382 978.838 307.066" stroke="#C029DF" stroke-width="14.3097" stroke-linecap="round" stroke-linejoin="round"/>
<path d="M634.357 84.9148C631.674 87.5984 628.034 89.106 624.239 89.106C620.444 89.106 616.804 87.5984 614.12 84.9148L593.883 64.6778H583.765V54.5594L563.528 34.3224C560.844 31.6388 559.337 27.9991 559.337 24.2039C559.337 20.4088 560.844 16.7691 563.528 14.0855M695.068 24.2039C697.752 21.5204 699.259 17.8806 699.259 14.0855C699.259 10.2903 697.752 6.65059 695.068 3.967L674.831 -16.2699V-26.3884H664.713L644.476 -46.6254C641.792 -49.3089 638.153 -50.8166 634.357 -50.8166C630.562 -50.8166 626.922 -49.3089 624.239 -46.6254" stroke="#C029DF" stroke-width="14.3097" stroke-linecap="round" stroke-linejoin="round"/>
<path d="M600.761 35.3516C611.641 46.231 626.431 43.034 638.203 41.6425C642.355 41.1503 646.317 40.638 648.554 38.4009C650.792 36.1637 651.306 32.2039 651.794 28.0472C653.192 16.2774 656.384 1.4874 645.507 -9.38977C634.628 -20.2692 614.607 -15.6807 615.001 4.84764C594.471 4.45166 589.882 24.4722 600.761 35.3516Z" fill="#C029DF"/>
<path d="M776.016 226.572C773.332 229.256 769.692 230.763 765.897 230.763C762.102 230.763 758.462 229.256 755.779 226.572L735.542 206.335H725.423V196.217L705.186 175.98C702.503 173.296 700.995 169.656 700.995 165.861C700.995 162.066 702.503 158.426 705.186 155.743M836.726 165.861C839.41 163.178 840.918 159.538 840.918 155.743C840.918 151.948 839.41 148.308 836.726 145.624L816.489 125.387V115.269H806.371L786.134 95.0319C783.45 92.3483 779.811 90.8407 776.016 90.8407C772.22 90.8407 768.581 92.3483 765.897 95.0319" stroke="#C029DF" stroke-width="14.3097" stroke-linecap="round" stroke-linejoin="round"/>
<path d="M742.42 177.009C753.299 187.888 768.089 184.691 779.861 183.3C784.013 182.808 787.975 182.295 790.213 180.058C792.45 177.821 792.964 173.861 793.452 169.704C794.85 157.935 798.043 143.145 787.166 132.267C776.286 121.388 756.266 125.977 756.659 146.505C736.129 146.109 731.54 166.129 742.42 177.009Z" fill="#C029DF"/>
<path d="M917.674 368.23C914.99 370.914 911.35 372.421 907.555 372.421C903.76 372.421 900.12 370.914 897.437 368.23L877.2 347.993H867.081V337.875L846.844 317.638C844.161 314.954 842.653 311.315 842.653 307.519C842.653 303.724 844.161 300.084 846.844 297.401M978.384 307.519C981.068 304.836 982.576 301.196 982.576 297.401C982.576 293.606 981.068 289.966 978.384 287.282L958.147 267.045V256.927H948.029L927.792 236.69C925.108 234.006 921.469 232.499 917.674 232.499C913.878 232.499 910.239 234.006 907.555 236.69" stroke="#C029DF" stroke-width="14.3097" stroke-linecap="round" stroke-linejoin="round"/>
<path d="M884.078 318.667C894.957 329.546 909.747 326.349 921.519 324.958C925.671 324.466 929.633 323.953 931.871 321.716C934.108 319.479 934.622 315.519 935.11 311.363C936.508 299.593 939.701 284.803 928.823 273.926C917.944 263.046 897.924 267.635 898.317 288.163C877.787 287.767 873.198 307.788 884.078 318.667Z" fill="#C029DF"/>
<path d="M3.22344 291.074C0.539855 293.758 -3.09987 295.265 -6.89503 295.265C-10.6902 295.265 -14.3299 293.758 -17.0135 291.074L-37.2504 270.837H-47.3689V260.719L-67.6059 240.482C-70.2894 237.798 -71.7971 234.158 -71.7971 230.363C-71.7971 226.568 -70.2894 222.928 -67.6059 220.245M63.9343 230.363C66.6179 227.68 68.1255 224.04 68.1255 220.245C68.1255 216.449 66.6179 212.81 63.9343 210.126L43.6973 189.889V179.771H33.5789L13.3419 159.534C10.6583 156.85 7.0186 155.343 3.22344 155.343C-0.571725 155.343 -4.21145 156.85 -6.89503 159.534" stroke="#C029DF" stroke-width="14.3097" stroke-linecap="round" stroke-linejoin="round"/>
<path d="M-30.3723 241.511C-19.4929 252.39 -4.70291 249.193 7.06913 247.802C11.2213 247.31 15.1834 246.797 17.4206 244.56C19.6577 242.323 20.1723 238.363 20.66 234.206C22.0582 222.437 25.2507 207.647 14.3735 196.769C3.49412 185.89 -16.5264 190.478 -16.1327 211.007C-36.6632 210.611 -41.2517 230.631 -30.3723 241.511Z" fill="#C029DF"/>
<path d="M144.881 432.732C142.198 435.416 138.558 436.923 134.763 436.923C130.968 436.923 127.328 435.416 124.644 432.732L104.407 412.495H94.2889V402.377L74.052 382.14C71.3684 379.456 69.8608 375.816 69.8608 372.021C69.8608 368.226 71.3684 364.586 74.052 361.903M205.592 372.021C208.276 369.338 209.783 365.698 209.783 361.903C209.783 358.108 208.276 354.468 205.592 351.784L185.355 331.547V321.429H175.237L155 301.192C152.316 298.508 148.676 297.001 144.881 297.001C141.086 297.001 137.446 298.508 134.763 301.192" stroke="#C029DF" stroke-width="14.3097" stroke-linecap="round" stroke-linejoin="round"/>
<path d="M111.285 383.169C122.165 394.048 136.955 390.851 148.727 389.46C152.879 388.968 156.841 388.455 159.078 386.218C161.315 383.981 161.83 380.021 162.318 375.865C163.716 364.095 166.908 349.305 156.031 338.428C145.152 327.548 125.131 332.137 125.525 352.665C104.994 352.269 100.406 372.29 111.285 383.169Z" fill="#C029DF"/>
<path d="M286.54 574.39C283.856 577.073 280.216 578.581 276.421 578.581C272.626 578.581 268.986 577.073 266.303 574.39L246.066 554.153H235.947V544.034L215.71 523.798C213.027 521.114 211.519 517.474 211.519 513.679C211.519 509.884 213.027 506.244 215.71 503.561M347.251 513.679C349.934 510.995 351.442 507.356 351.442 503.561C351.442 499.765 349.934 496.126 347.251 493.442L327.014 473.205V463.087H316.895L296.658 442.85C293.975 440.166 290.335 438.659 286.54 438.659C282.745 438.659 279.105 440.166 276.421 442.85" stroke="#C029DF" stroke-width="14.3097" stroke-linecap="round" stroke-linejoin="round"/>
<path d="M252.944 524.827C263.823 535.707 278.613 532.51 290.385 531.118C294.537 530.626 298.5 530.114 300.737 527.876C302.974 525.639 303.488 521.679 303.976 517.523C305.374 505.753 308.567 490.963 297.69 480.086C286.81 469.206 266.79 473.795 267.184 494.323C246.653 493.927 242.064 513.948 252.944 524.827Z" fill="#C029DF"/>
<path d="M428.198 716.048C425.514 718.732 421.875 720.239 418.079 720.239C414.284 720.239 410.645 718.732 407.961 716.048L387.724 695.811H377.606V685.693L357.369 665.456C354.685 662.772 353.177 659.132 353.177 655.337C353.177 651.542 354.685 647.902 357.369 645.219M488.909 655.337C491.592 652.654 493.1 649.014 493.1 645.219C493.1 641.424 491.592 637.784 488.909 635.1L468.672 614.863V604.745H458.553L438.316 584.508C435.633 581.824 431.993 580.317 428.198 580.317C424.403 580.317 420.763 581.824 418.079 584.508" stroke="#C029DF" stroke-width="14.3097" stroke-linecap="round" stroke-linejoin="round"/>
<path d="M394.602 666.485C405.481 677.364 420.271 674.167 432.043 672.776C436.196 672.284 440.158 671.771 442.395 669.534C444.632 667.297 445.147 663.337 445.634 659.18C447.033 647.411 450.225 632.621 439.348 621.744C428.468 610.864 408.448 615.453 408.842 635.981C388.311 635.585 383.723 655.605 394.602 666.485Z" fill="#C029DF"/>
<path d="M-68.0593 220.699C-70.7429 223.383 -74.3826 224.89 -78.1777 224.89C-81.9729 224.89 -85.6126 223.383 -88.2962 220.699L-108.533 200.462H-118.652V190.344L-138.889 170.107C-141.572 167.423 -143.08 163.783 -143.08 159.988C-143.08 156.193 -141.572 152.553 -138.889 149.87M-7.34844 159.988C-4.66486 157.305 -3.15724 153.665 -3.15724 149.87C-3.15724 146.074 -4.66486 142.435 -7.34844 139.751L-27.5854 119.514V109.396H-37.7039L-57.9408 89.1588C-60.6244 86.4752 -64.2641 84.9676 -68.0593 84.9676C-71.8544 84.9676 -75.4942 86.4752 -78.1777 89.1588" stroke="#C029DF" stroke-width="14.3097" stroke-linecap="round" stroke-linejoin="round"/>
<path d="M73.5986 362.357C70.915 365.041 67.2753 366.548 63.4801 366.548C59.6849 366.548 56.0452 365.041 53.3616 362.357L33.1247 342.12H23.0062V332.002L2.76926 311.765C0.0856747 309.081 -1.42195 305.441 -1.42195 301.646C-1.42195 297.851 0.0856747 294.211 2.76926 291.528M134.309 301.646C136.993 298.963 138.501 295.323 138.501 291.528C138.501 287.733 136.993 284.093 134.309 281.409L114.072 261.172V251.054H103.954L83.717 230.817C81.0334 228.133 77.3937 226.626 73.5986 226.626C69.8034 226.626 66.1637 228.133 63.4801 230.817" stroke="#C029DF" stroke-width="14.3097" stroke-linecap="round" stroke-linejoin="round"/>
<path d="M40.0027 312.794C50.8821 323.673 65.6721 320.476 77.4441 319.085C81.5963 318.593 85.5584 318.08 87.7956 315.843C90.0327 313.606 90.5473 309.646 91.035 305.49C92.4332 293.72 95.6257 278.93 84.7485 268.053C73.8691 257.173 53.8486 261.762 54.2423 282.29C33.7118 281.894 29.1233 301.915 40.0027 312.794Z" fill="#C029DF"/>
<path d="M215.257 504.014C212.573 506.698 208.933 508.206 205.138 508.206C201.343 508.206 197.703 506.698 195.02 504.014L174.783 483.777H164.664V473.659L144.427 453.422C141.744 450.738 140.236 447.099 140.236 443.304C140.236 439.508 141.744 435.869 144.427 433.185M275.967 443.304C278.651 440.62 280.159 436.98 280.159 433.185C280.159 429.39 278.651 425.75 275.967 423.067L255.73 402.83V392.711H245.612L225.375 372.474C222.691 369.791 219.052 368.283 215.257 368.283C211.461 368.283 207.822 369.791 205.138 372.474" stroke="#C029DF" stroke-width="14.3097" stroke-linecap="round" stroke-linejoin="round"/>
<path d="M181.661 454.451C192.54 465.331 207.33 462.134 219.102 460.742C223.254 460.25 227.216 459.738 229.454 457.5C231.691 455.263 232.205 451.303 232.693 447.147C234.091 435.377 237.284 420.587 226.406 409.71C215.527 398.83 195.507 403.419 195.9 423.947C175.37 423.551 170.781 443.572 181.661 454.451Z" fill="#C029DF"/>
<path d="M356.915 645.673C354.231 648.356 350.592 649.864 346.796 649.864C343.001 649.864 339.362 648.356 336.678 645.673L316.441 625.436H306.323V615.317L286.086 595.08C283.402 592.397 281.894 588.757 281.894 584.962C281.894 581.167 283.402 577.527 286.086 574.843M417.626 584.962C420.309 582.278 421.817 578.638 421.817 574.843C421.817 571.048 420.309 567.408 417.626 564.725L397.389 544.488V534.369H387.27L367.033 514.132C364.35 511.449 360.71 509.941 356.915 509.941C353.12 509.941 349.48 511.449 346.796 514.132" stroke="#C029DF" stroke-width="14.3097" stroke-linecap="round" stroke-linejoin="round"/>
<path d="M323.319 596.11C334.199 606.989 348.988 603.792 360.761 602.401C364.913 601.909 368.875 601.396 371.112 599.159C373.349 596.922 373.864 592.962 374.351 588.805C375.75 577.036 378.942 562.246 368.065 551.369C357.186 540.489 337.165 545.078 337.559 565.606C317.028 565.21 312.44 585.23 323.319 596.11Z" fill="#C029DF"/>
<path d="M498.573 787.331C495.89 790.014 492.25 791.522 488.455 791.522C484.66 791.522 481.02 790.014 478.336 787.331L458.099 767.094H447.981V756.975L427.744 736.738C425.06 734.055 423.553 730.415 423.553 726.62C423.553 722.825 425.06 719.185 427.744 716.501M559.284 726.62C561.968 723.936 563.475 720.297 563.475 716.501C563.475 712.706 561.968 709.067 559.284 706.383L539.047 686.146V676.028H528.929L508.692 655.791C506.008 653.107 502.368 651.599 498.573 651.599C494.778 651.599 491.138 653.107 488.455 655.791" stroke="#C029DF" stroke-width="14.3097" stroke-linecap="round" stroke-linejoin="round"/>
<path d="M810.416 50.5144C807.732 53.198 804.093 54.7056 800.297 54.7056C796.502 54.7056 792.863 53.198 790.179 50.5144L769.942 30.2774H759.824V20.159L739.587 -0.0779712C736.903 -2.76156 735.395 -6.40128 735.395 -10.1964C735.395 -13.9916 736.903 -17.6313 739.587 -20.3149M871.127 -10.1964C873.81 -12.88 875.318 -16.5198 875.318 -20.3149C875.318 -24.1101 873.81 -27.7498 871.127 -30.4334L850.89 -50.6703V-60.7888H840.771L820.534 -81.0257C817.851 -83.7093 814.211 -85.217 810.416 -85.217C806.621 -85.217 802.981 -83.7093 800.297 -81.0257" stroke="#C029DF" stroke-width="14.3097" stroke-linecap="round" stroke-linejoin="round"/>
<path d="M776.82 0.951189C787.699 11.8306 802.489 8.63366 814.262 7.24213C818.414 6.74995 822.376 6.23764 824.613 4.00046C826.85 1.76328 827.365 -2.19653 827.852 -6.35321C829.251 -18.123 832.443 -32.913 821.566 -43.7902C810.687 -54.6696 790.666 -50.0811 791.06 -29.5527C770.529 -29.9487 765.941 -9.92821 776.82 0.951189Z" fill="#C029DF"/>
<path d="M952.074 192.172C949.39 194.855 945.75 196.363 941.955 196.363C938.16 196.363 934.52 194.855 931.837 192.172L911.6 171.935H901.481V161.816L881.244 141.579C878.561 138.896 877.053 135.256 877.053 131.461C877.053 127.666 878.561 124.026 881.244 121.342M1012.78 131.461C1015.47 128.777 1016.98 125.137 1016.98 121.342C1016.98 117.547 1015.47 113.907 1012.78 111.224L992.548 90.9869V80.8684H982.429L962.192 60.6315C959.509 57.9479 955.869 56.4403 952.074 56.4403C948.278 56.4403 944.639 57.9479 941.955 60.6315" stroke="#C029DF" stroke-width="14.3097" stroke-linecap="round" stroke-linejoin="round"/>
<path d="M739.132 -19.8611C736.449 -17.1775 732.809 -15.6699 729.014 -15.6699C725.219 -15.6699 721.579 -17.1775 718.895 -19.8611L698.658 -40.098H688.54V-50.2165L668.303 -70.4535C665.619 -73.137 664.112 -76.7768 664.112 -80.5719C664.112 -84.3671 665.619 -88.0068 668.303 -90.6904M799.843 -80.5719C802.527 -83.2555 804.034 -86.8952 804.034 -90.6904C804.034 -94.4856 802.527 -98.1253 799.843 -100.809L779.606 -121.046V-131.164H769.488L749.251 -151.401C746.567 -154.085 742.927 -155.592 739.132 -155.592C735.337 -155.592 731.697 -154.085 729.014 -151.401" stroke="#C029DF" stroke-width="14.3097" stroke-linecap="round" stroke-linejoin="round"/>
<path d="M880.791 121.797C878.107 124.48 874.468 125.988 870.672 125.988C866.877 125.988 863.238 124.48 860.554 121.797L840.317 101.56H830.199V91.4412L809.962 71.2043C807.278 68.5207 805.77 64.8809 805.77 61.0858C805.77 57.2906 807.278 53.6509 809.962 50.9673M941.502 61.0858C944.185 58.4022 945.693 54.7625 945.693 50.9673C945.693 47.1721 944.185 43.5324 941.502 40.8488L921.265 20.6119V10.4934H911.146L890.909 -9.74352C888.226 -12.4271 884.586 -13.9347 880.791 -13.9347C876.996 -13.9347 873.356 -12.4271 870.672 -9.74352" stroke="#C029DF" stroke-width="14.3097" stroke-linecap="round" stroke-linejoin="round"/>
<path d="M847.195 72.2334C858.074 83.1128 872.864 79.9159 884.637 78.5244C888.789 78.0322 892.751 77.5199 894.988 75.2827C897.225 73.0455 897.74 69.0857 898.227 64.929C899.626 53.1592 902.818 38.3692 891.941 27.4921C881.062 16.6127 861.041 21.2011 861.435 41.7295C840.904 41.3335 836.316 61.354 847.195 72.2334Z" fill="#C029DF"/>
<path d="M-33.6594 44.6409C-36.343 47.3244 -39.9827 48.8321 -43.7778 48.8321C-47.573 48.8321 -51.2127 47.3244 -53.8963 44.6409L-74.1333 24.4039H-84.2517V14.2854L-104.489 -5.95151C-107.172 -8.63509 -108.68 -12.2748 -108.68 -16.07C-108.68 -19.8651 -107.172 -23.5049 -104.489 -26.1884M27.0515 -16.07C29.735 -18.7536 31.2427 -22.3933 31.2427 -26.1884C31.2427 -29.9836 29.735 -33.6233 27.0515 -36.3069L6.81452 -56.5439V-66.6623H-3.30396L-23.5409 -86.8993C-26.2245 -89.5829 -29.8642 -91.0905 -33.6594 -91.0905C-37.4545 -91.0905 -41.0943 -89.5829 -43.7778 -86.8993" stroke="#C029DF" stroke-width="14.3097" stroke-linecap="round" stroke-linejoin="round"/>
<path d="M-67.2552 -4.92186C-56.3758 5.95754 -41.5858 2.76061 -29.8138 1.36909C-25.6616 0.876906 -21.6996 0.364593 -19.4624 -1.87259C-17.2252 -4.10977 -16.7106 -8.06957 -16.2229 -12.2263C-14.8247 -23.9961 -11.6323 -38.786 -22.5094 -49.6632C-33.3888 -60.5426 -53.4093 -55.9541 -53.0156 -35.4258C-73.5462 -35.8218 -78.1346 -15.8013 -67.2552 -4.92186Z" fill="#C029DF"/>
<path d="M107.998 186.3C105.315 188.983 101.675 190.491 97.88 190.491C94.0848 190.491 90.4451 188.983 87.7615 186.3L67.5246 166.063H57.4061V155.944L37.1692 135.707C34.4856 133.024 32.978 129.384 32.978 125.589C32.978 121.794 34.4856 118.154 37.1692 115.47M168.709 125.589C171.393 122.905 172.9 119.265 172.9 115.47C172.9 111.675 171.393 108.035 168.709 105.352L148.472 85.1148V74.9964H138.354L118.117 54.7594C115.433 52.0758 111.794 50.5682 107.998 50.5682C104.203 50.5682 100.564 52.0758 97.88 54.7594" stroke="#C029DF" stroke-width="14.3097" stroke-linecap="round" stroke-linejoin="round"/>
<path d="M74.4026 136.736C85.282 147.616 100.072 144.419 111.844 143.027C115.996 142.535 119.958 142.023 122.195 139.786C124.433 137.548 124.947 133.589 125.435 129.432C126.833 117.662 130.026 102.872 119.148 91.995C108.269 81.1156 88.2485 85.7041 88.6423 106.232C68.1117 105.836 63.5232 125.857 74.4026 136.736Z" fill="#C029DF"/>
<path d="M249.656 327.957C246.973 330.64 243.333 332.148 239.538 332.148C235.743 332.148 232.103 330.64 229.419 327.957L209.183 307.72H199.064V297.601L178.827 277.364C176.144 274.681 174.636 271.041 174.636 267.246C174.636 263.451 176.144 259.811 178.827 257.127M310.367 267.246C313.051 264.562 314.558 260.923 314.558 257.127C314.558 253.332 313.051 249.693 310.367 247.009L290.13 226.772V216.654H280.012L259.775 196.417C257.091 193.733 253.452 192.225 249.656 192.225C245.861 192.225 242.222 193.733 239.538 196.417" stroke="#C029DF" stroke-width="14.3097" stroke-linecap="round" stroke-linejoin="round"/>
<path d="M216.061 278.394C226.94 289.273 241.73 286.076 253.502 284.685C257.654 284.192 261.616 283.68 263.853 281.443C266.091 279.206 266.605 275.246 267.093 271.089C268.491 259.319 271.684 244.529 260.806 233.652C249.927 222.773 229.906 227.361 230.3 247.89C209.77 247.494 205.181 267.514 216.061 278.394Z" fill="#C029DF"/>
<path d="M391.315 469.615C388.632 472.299 384.992 473.806 381.197 473.806C377.401 473.806 373.762 472.299 371.078 469.615L350.841 449.378H340.723V439.26L320.486 419.023C317.802 416.339 316.295 412.699 316.295 408.904C316.295 405.109 317.802 401.469 320.486 398.786M452.026 408.904C454.71 406.221 456.217 402.581 456.217 398.786C456.217 394.991 454.71 391.351 452.026 388.667L431.789 368.43V358.312H421.671L401.434 338.075C398.75 335.391 395.11 333.884 391.315 333.884C387.52 333.884 383.88 335.391 381.197 338.075" stroke="#C029DF" stroke-width="14.3097" stroke-linecap="round" stroke-linejoin="round"/>
<path d="M357.719 420.052C368.599 430.931 383.389 427.734 395.161 426.343C399.313 425.851 403.275 425.338 405.512 423.101C407.749 420.864 408.264 416.904 408.752 412.747C410.15 400.978 413.342 386.188 402.465 375.31C391.586 364.431 371.565 369.019 371.959 389.548C351.428 389.152 346.84 409.172 357.719 420.052Z" fill="#C029DF"/>
<path d="M532.973 611.273C530.289 613.956 526.65 615.464 522.855 615.464C519.059 615.464 515.42 613.956 512.736 611.273L492.499 591.036H482.381V580.917L462.144 560.68C459.46 557.997 457.953 554.357 457.953 550.562C457.953 546.767 459.46 543.127 462.144 540.443M593.684 550.562C596.367 547.878 597.875 544.239 597.875 540.443C597.875 536.648 596.367 533.009 593.684 530.325L573.447 510.088V499.969H563.328L543.092 479.733C540.408 477.049 536.768 475.541 532.973 475.541C529.178 475.541 525.538 477.049 522.855 479.733" stroke="#C029DF" stroke-width="14.3097" stroke-linecap="round" stroke-linejoin="round"/>
<path d="M499.377 561.71C510.257 572.589 525.047 569.392 536.819 568.001C540.971 567.509 544.933 566.996 547.17 564.759C549.407 562.522 549.922 558.562 550.41 554.406C551.808 542.636 555 527.846 544.123 516.969C533.244 506.089 513.223 510.678 513.617 531.206C493.086 530.81 488.498 550.831 499.377 561.71Z" fill="#C029DF"/>
<path d="M674.631 752.931C671.947 755.614 668.307 757.122 664.512 757.122C660.717 757.122 657.077 755.614 654.394 752.931L634.157 732.694H624.038V722.575L603.801 702.339C601.118 699.655 599.61 696.015 599.61 692.22C599.61 688.425 601.118 684.785 603.801 682.102M735.342 692.22C738.025 689.536 739.533 685.897 739.533 682.102C739.533 678.306 738.025 674.667 735.342 671.983L715.105 651.746V641.628H704.986L684.749 621.391C682.066 618.707 678.426 617.2 674.631 617.2C670.836 617.2 667.196 618.707 664.512 621.391" stroke="#C029DF" stroke-width="14.3097" stroke-linecap="round" stroke-linejoin="round"/>
<path d="M36.7158 115.924C34.0322 118.607 30.3924 120.115 26.5973 120.115C22.8021 120.115 19.1624 118.607 16.4788 115.924L-3.75814 95.6866H-13.8766V85.5682L-34.1136 65.3312C-36.7971 62.6476 -38.3048 59.0079 -38.3048 55.2127C-38.3048 51.4176 -36.7971 47.7779 -34.1136 45.0943M97.4266 55.2127C100.11 52.5292 101.618 48.8894 101.618 45.0943C101.618 41.2991 100.11 37.6594 97.4266 34.9758L77.1896 14.7388V4.62038H67.0712L46.8342 -15.6166C44.1506 -18.3002 40.5109 -19.8078 36.7157 -19.8078C32.9206 -19.8078 29.2809 -18.3002 26.5973 -15.6166" stroke="#C029DF" stroke-width="14.3097" stroke-linecap="round" stroke-linejoin="round"/>
<path d="M3.11989 66.3604C13.9993 77.2398 28.7893 74.0428 40.5613 72.6513C44.7135 72.1591 48.6756 71.6468 50.9127 69.4096C53.1499 67.1725 53.6645 63.2127 54.1522 59.056C55.5504 47.2862 58.7429 32.4962 47.8657 21.619C36.9863 10.7396 16.9658 15.3281 17.3595 35.8564C-3.17106 35.4605 -7.75951 55.481 3.11989 66.3604Z" fill="#C029DF"/>
<path d="M178.374 257.582C175.69 260.265 172.05 261.773 168.255 261.773C164.46 261.773 160.82 260.265 158.137 257.582L137.9 237.345H127.781V227.226L107.544 206.989C104.861 204.306 103.353 200.666 103.353 196.871C103.353 193.076 104.861 189.436 107.544 186.752M239.085 196.871C241.768 194.187 243.276 190.548 243.276 186.752C243.276 182.957 241.768 179.318 239.085 176.634L218.848 156.397V146.279H208.729L188.492 126.042C185.809 123.358 182.169 121.85 178.374 121.85C174.579 121.85 170.939 123.358 168.255 126.042" stroke="#C029DF" stroke-width="14.3097" stroke-linecap="round" stroke-linejoin="round"/>
<path d="M144.778 208.019C155.657 218.898 170.447 215.701 182.219 214.31C186.371 213.817 190.334 213.305 192.571 211.068C194.808 208.831 195.322 204.871 195.81 200.714C197.208 188.944 200.401 174.154 189.524 163.277C178.644 152.398 158.624 156.986 159.017 177.515C138.487 177.119 133.898 197.139 144.778 208.019Z" fill="#C029DF"/>
<path d="M320.031 399.24C317.348 401.924 313.708 403.431 309.913 403.431C306.118 403.431 302.478 401.924 299.794 399.24L279.558 379.003H269.439V368.885L249.202 348.648C246.519 345.964 245.011 342.324 245.011 338.529C245.011 334.734 246.519 331.094 249.202 328.411M380.742 338.529C383.426 335.846 384.933 332.206 384.933 328.411C384.933 324.616 383.426 320.976 380.742 318.292L360.505 298.055V287.937H350.387L330.15 267.7C327.466 265.016 323.827 263.509 320.031 263.509C316.236 263.509 312.597 265.016 309.913 267.7" stroke="#C029DF" stroke-width="14.3097" stroke-linecap="round" stroke-linejoin="round"/>
<path d="M286.436 349.677C297.315 360.556 312.105 357.359 323.877 355.968C328.029 355.476 331.991 354.963 334.228 352.726C336.466 350.489 336.98 346.529 337.468 342.372C338.866 330.603 342.059 315.813 331.181 304.935C320.302 294.056 300.281 298.644 300.675 319.173C280.145 318.777 275.556 338.797 286.436 349.677Z" fill="#C029DF"/>
<path d="M461.69 540.897C459.007 543.581 455.367 545.088 451.572 545.088C447.777 545.088 444.137 543.581 441.453 540.897L421.216 520.66H411.098V510.542L390.861 490.305C388.177 487.621 386.67 483.982 386.67 480.186C386.67 476.391 388.177 472.751 390.861 470.068M522.401 480.186C525.085 477.503 526.592 473.863 526.592 470.068C526.592 466.273 525.085 462.633 522.401 459.949L502.164 439.712V429.594H492.046L471.809 409.357C469.125 406.673 465.486 405.166 461.69 405.166C457.895 405.166 454.255 406.673 451.572 409.357" stroke="#C029DF" stroke-width="14.3097" stroke-linecap="round" stroke-linejoin="round"/>
<path d="M428.094 491.334C438.974 502.213 453.764 499.016 465.536 497.625C469.688 497.133 473.65 496.62 475.887 494.383C478.125 492.146 478.639 488.186 479.127 484.03C480.525 472.26 483.717 457.47 472.84 446.593C461.961 435.713 441.94 440.302 442.334 460.83C421.804 460.434 417.215 480.455 428.094 491.334Z" fill="#C029DF"/>
<path d="M603.348 682.556C600.664 685.239 597.025 686.747 593.23 686.747C589.434 686.747 585.795 685.239 583.111 682.556L562.874 662.319H552.756V652.2L532.519 631.964C529.835 629.28 528.328 625.64 528.328 621.845C528.328 618.05 529.835 614.41 532.519 611.727M664.059 621.845C666.742 619.161 668.25 615.522 668.25 611.727C668.25 607.931 666.742 604.292 664.059 601.608L643.822 581.371V571.253H633.703L613.467 551.016C610.783 548.332 607.143 546.825 603.348 546.825C599.553 546.825 595.913 548.332 593.23 551.016" stroke="#C029DF" stroke-width="14.3097" stroke-linecap="round" stroke-linejoin="round"/>
<path d="M569.752 632.993C580.632 643.873 595.422 640.676 607.194 639.284C611.346 638.792 615.308 638.28 617.545 636.042C619.782 633.805 620.297 629.845 620.785 625.689C622.183 613.919 625.375 599.129 614.498 588.252C603.619 577.372 583.598 581.961 583.992 602.489C563.461 602.093 558.873 622.114 569.752 632.993Z" fill="#C029DF"/>
<path d="M985.566 17.0222C982.883 19.7058 979.243 21.2134 975.448 21.2134C971.652 21.2134 968.013 19.7058 965.329 17.0222L945.092 -3.21474H934.974V-13.3332L914.737 -33.5702C912.053 -36.2537 910.546 -39.8935 910.546 -43.6886C910.546 -47.4838 912.053 -51.1235 914.737 -53.8071M1046.28 -43.6886C1048.96 -46.3722 1050.47 -50.0119 1050.47 -53.8071C1050.47 -57.6023 1048.96 -61.242 1046.28 -63.9256L1026.04 -84.1625V-94.281H1015.92L995.685 -114.518C993.001 -117.202 989.361 -118.709 985.566 -118.709C981.771 -118.709 978.131 -117.202 975.448 -114.518" stroke="#C029DF" stroke-width="14.3097" stroke-linecap="round" stroke-linejoin="round"/>
</g>
<rect x="-0.138672" y="0.269531" width="898.139" height="632" fill="url(#paint0_linear_196_404)"/>
</g>
<defs>
<linearGradient id="paint0_linear_196_404" x1="448.931" y1="0.269531" x2="448.931" y2="632.27" gradientUnits="userSpaceOnUse">
<stop stop-color="white" stop-opacity="0"/>
<stop offset="1" stop-color="#C029DF"/>
</linearGradient>
<clipPath id="clip0_196_404">
<rect width="898" height="632" fill="white" transform="translate(0 0.269531)"/>
</clipPath>
</defs>
</svg>
